<?xml version="1.0" encoding="utf-8"?>
<!-- Svg Vector Icons : http://www.onlinewebfonts.com/icon -->
<!DOCTYPE svg PUBLIC "-//W3C//DTD SVG 1.1//EN" "http://www.w3.org/Graphics/SVG/1.1/DTD/svg11.dtd">
<svg version="1.1" xmlns="http://www.w3.org/2000/svg" xmlns:xlink="http://www.w3.org/1999/xlink" x="0px" y="0px" viewBox="0 0 1000 1000" enable-background="new 0 0 1000 1000" xml:space="preserve">
<metadata> Svg Vector Icons : http://www.onlinewebfonts.com/icon </metadata>
<g><path d="M10,157.5v451.8h676.4l0.6-451.8c0-11.3-9.1-20.5-20.3-20.5H30.3C19.1,137.1,10,146.2,10,157.5L10,157.5z"/><path d="M381.8,757.7H680c0-0.8-0.1-1.7-0.1-2.5c0-6.1,3.6-31.8,5.6-38.4c7.5-25.3,41.1-96.6,128.3-96.6c88.8,0,120.8,71.3,128.3,96.6c1.9,6.6,5.6,32.4,5.6,38.4c0,0.9-0.1,1.7-0.1,2.5h22.2c11.2,0,20.3-9.1,20.3-20.5V632c0-5.2-2-9.9-5.2-13.5v-153c0-118.3-77.4-179.5-80.7-182.1c-3.6-2.7-7.9-4.2-12.3-4.2H728.5c-6,0-11.3,2.7-15.1,6.9V623c0,8.3-5.3,13.6-13.5,13.6H312.1C377.2,661.8,381.7,728.5,381.8,757.7L381.8,757.7z M748.8,440V320.2h135.5c13.5,12.5,50.5,52.6,58.4,119.8H748.8z"/><path d="M51.2,631.4c0,0.2-0.1,105.8-0.1,105.8c0,11.3,9.1,20.5,20.3,20.5h42.8c-8.1-63.1,49-120.7,80.4-126.3C169,631.4,51.2,631.4,51.2,631.4L51.2,631.4z"/><path d="M813.7,647.5c59.5,0,107.7,48.2,107.7,107.8c0,59.5-48.2,107.7-107.7,107.7c-59.5,0-107.7-48.2-107.7-107.7C706,695.7,754.2,647.5,813.7,647.5L813.7,647.5z M763.9,755.2c0,27.5,22.3,49.8,49.8,49.8s49.8-22.3,49.8-49.8c0-27.5-22.3-49.8-49.8-49.8C786.2,705.4,763.9,727.7,763.9,755.2z"/><path d="M249,647.5c59.5,0,107.7,48.2,107.7,107.8c0,59.5-48.2,107.7-107.7,107.7c-59.5,0-107.7-48.2-107.7-107.7C141.2,695.7,189.5,647.5,249,647.5L249,647.5z M199.2,755.2c0,27.5,22.3,49.8,49.8,49.8s49.8-22.3,49.8-49.8c0-27.5-22.3-49.8-49.8-49.8S199.2,727.7,199.2,755.2z"/></g>
</svg>