<?xml version="1.0" encoding="iso-8859-1"?>
<!-- Generator: Adobe Illustrator 18.1.1, SVG Export Plug-In . SVG Version: 6.00 Build 0)  -->
<svg version="1.1" id="Capa_1" xmlns="http://www.w3.org/2000/svg" xmlns:xlink="http://www.w3.org/1999/xlink" x="0px" y="0px"
	 viewBox="0 0 17.334 17.334" style="enable-background:new 0 0 17.334 17.334;" xml:space="preserve">
<g>
	<g>
		<path style="fill:#030104;" d="M12.254,0.615C12.254,0.276,11.979,0,11.639,0H5.696c-0.34,0-0.615,0.275-0.615,0.615l-2.05,6.968
			c0,0.34,0.276,0.615,0.615,0.615H5.88h5.892h1.917c0.339,0,0.614-0.275,0.614-0.615L12.254,0.615z"/>
		<path style="fill:#030104;" d="M6.895,9.276c-0.182,0.47-0.192,0.928,0.184,1.146c0.934,0.545-0.228,4.827-0.228,4.827
			c0,0.162,0.026,0.316,0.066,0.462h-0.61c-0.448,0-0.811,0.363-0.811,0.812c0,0.447,0.363,0.811,0.811,0.811h4.526
			c0.447,0,0.811-0.363,0.811-0.811c0-0.448-0.363-0.812-0.811-0.812h-0.609c0.039-0.146,0.066-0.3,0.066-0.462
			c0,0-1.162-4.282-0.228-4.827c0.507-0.295,0.314-1.021-0.062-1.627H7.117C7.023,8.948,6.944,9.11,6.895,9.276z"/>
	</g>
</g>
<g>
</g>
<g>
</g>
<g>
</g>
<g>
</g>
<g>
</g>
<g>
</g>
<g>
</g>
<g>
</g>
<g>
</g>
<g>
</g>
<g>
</g>
<g>
</g>
<g>
</g>
<g>
</g>
<g>
</g>
</svg>
