<?xml version="1.0" encoding="utf-8"?>
<!-- Svg Vector Icons : http://www.onlinewebfonts.com/icon -->
<!DOCTYPE svg PUBLIC "-//W3C//DTD SVG 1.1//EN" "http://www.w3.org/Graphics/SVG/1.1/DTD/svg11.dtd">
<svg version="1.1" xmlns="http://www.w3.org/2000/svg" xmlns:xlink="http://www.w3.org/1999/xlink" x="0px" y="0px" viewBox="0 0 1000 1000" enable-background="new 0 0 1000 1000" xml:space="preserve">
<metadata> Svg Vector Icons : http://www.onlinewebfonts.com/icon </metadata>
<g><g transform="translate(0.000000,512.000000) scale(0.100000,-0.100000)"><path d="M3747.8,4972.1c-47.9-45.9-47.9-47.9-47.9-417.3c0-430.8,1.9-426.9-180-752.4c-157-279.5-202.9-402-216.3-562.9c-19.2-237.4,72.7-472.9,400.1-1024.2c101.5-168.5,201-342.7,224-386.7l40.2-82.3h1033.8h1033.8l40.2,82.3c23,44.1,124.4,218.3,224,386.7c323.5,543.7,419.3,788.8,400.1,1024.2c-13.4,160.8-59.4,283.3-216.3,562.9c-181.9,325.5-180,321.6-180,752.4c0,369.5,0,371.4-47.9,417.3c-65.1,67-149.3,63.2-222.1-7.6l-55.5-55.5v-358v-358l-74.7-157c-204.9-432.7-516.9-662.4-901.7-662.4s-696.9,229.7-901.7,662.4l-74.7,157v358v358l-55.5,55.5C3897.1,5035.2,3812.9,5039.1,3747.8,4972.1z"/><path d="M3824.4,1187.2c-72.7-130.2-287.2-507.3-478.6-838.5C2488.1-1137,2068.8-1998.5,1808.4-2810.2c-193.4-601.2-291-1250.1-204.8-1372.7c86.2-124.4,1399.5-434.6,2326.1-553.3c323.5-40.2,1460.7-59.4,1826.4-28.7c746.6,63.2,1705.8,250.8,2400.7,471c279.5,88.1,281.4,91.9,266.1,379.1c-34.5,654.7-333.1,1554.6-874.9,2636.2C7324-828.8,7084.6-392.3,6629,396.5c-218.2,379.1-436.5,763.9-486.3,857.7l-91.9,166.6H5001.7H3952.6L3824.4,1187.2z"/></g></g>
</svg>