<?xml version="1.0" standalone="no"?>
<!DOCTYPE svg PUBLIC "-//W3C//DTD SVG 20010904//EN"
 "http://www.w3.org/TR/2001/REC-SVG-20010904/DTD/svg10.dtd">
<svg version="1.0" xmlns="http://www.w3.org/2000/svg"
 width="640.000000pt" height="1280.000000pt" viewBox="0 0 640.000000 1280.000000"
 preserveAspectRatio="xMidYMid meet">
<metadata>
Created by potrace 1.15, written by Peter Selinger 2001-2017
</metadata>
<g transform="translate(0.000000,1280.000000) scale(0.100000,-0.100000)"
fill="#000000" stroke="none">
<path d="M3035 12789 c-38 -4 -146 -20 -238 -35 l-169 -27 6 -31 c3 -17 8 -80
12 -140 6 -102 6 -108 -12 -104 -13 2 -21 15 -25 42 -8 50 -30 66 -90 66 -53
0 -98 -29 -124 -81 -46 -87 27 -209 125 -209 50 0 90 32 90 71 0 24 4 29 25
29 14 0 25 -3 25 -7 0 -5 7 -89 15 -188 8 -99 15 -181 15 -182 0 -2 -11 -3
-25 -3 -21 0 -26 6 -31 40 -8 50 -29 68 -85 76 -40 5 -48 3 -86 -31 -27 -23
-47 -51 -54 -76 -17 -57 1 -108 54 -154 38 -34 46 -36 86 -31 51 7 81 29 81
60 0 32 15 48 41 44 23 -3 24 -7 36 -148 17 -215 17 -242 -4 -238 -11 2 -21
19 -28 48 -12 51 -38 70 -96 70 -28 0 -46 -9 -78 -37 -72 -64 -73 -155 -4
-220 30 -29 41 -33 88 -33 62 0 81 14 91 65 5 28 11 35 29 35 25 0 26 -9 41
-205 7 -87 9 -93 80 -224 40 -75 70 -138 66 -141 -4 -3 -7 -216 -7 -475 0
-444 -9 -1130 -20 -1585 -3 -113 -10 -459 -15 -770 -19 -1132 -30 -1591 -36
-1602 -3 -5 -35 -8 -72 -8 -150 0 -518 -39 -707 -75 -203 -39 -403 -106 -521
-176 -86 -50 -203 -171 -241 -249 -77 -154 -96 -331 -72 -685 11 -174 34 -337
73 -511 44 -198 56 -309 56 -517 0 -300 -35 -446 -211 -880 -257 -634 -301
-745 -352 -902 -143 -432 -187 -738 -157 -1070 50 -541 306 -919 771 -1139
253 -120 564 -191 989 -228 213 -18 1445 -18 1650 0 338 30 589 77 800 149
477 164 778 462 904 896 51 174 60 255 61 507 0 203 -3 252 -23 365 -61 337
-145 589 -411 1234 -150 363 -203 507 -249 681 l-36 135 0 250 c0 264 3 299
60 548 53 240 67 373 68 662 1 310 -8 370 -75 505 -101 202 -348 343 -734 419
-204 40 -568 81 -730 81 -38 0 -77 5 -85 10 -18 11 -16 -40 -30 840 -6 360
-12 759 -15 885 -3 127 -10 482 -15 790 -6 308 -15 801 -20 1095 -6 294 -8
606 -5 693 l5 159 66 121 65 122 10 135 c6 74 12 141 15 148 2 7 14 12 26 10
16 -2 24 -12 29 -38 9 -45 32 -60 90 -60 106 0 175 126 119 218 -40 65 -132
93 -180 54 -13 -11 -25 -35 -29 -58 -5 -30 -11 -40 -29 -42 -12 -2 -22 0 -22
5 0 4 7 89 15 188 8 99 15 184 15 188 0 5 12 7 27 5 21 -2 29 -11 41 -45 12
-37 19 -44 54 -54 53 -14 84 -5 124 35 63 63 63 149 0 212 -40 40 -71 49 -124
34 -38 -10 -43 -15 -55 -58 -11 -35 -19 -48 -35 -50 -27 -4 -27 -5 -10 216 12
158 12 162 35 162 18 0 24 -8 33 -40 12 -45 36 -60 96 -60 25 0 44 9 73 36 74
66 77 148 10 215 -36 36 -44 39 -92 39 -63 0 -82 -15 -92 -72 -6 -29 -12 -38
-27 -38 -18 0 -19 5 -14 48 3 26 8 88 12 138 l6 91 -134 22 c-310 51 -417 58
-573 40z"/>
</g>
</svg>
